{
    "asset" : {
        "generator" : "Khronos glTF Blender I/O v1.6.16",
        "version" : "2.0"
    },
    "scene" : 0,
    "scenes" : [
        {
            "name" : "Scene",
            "nodes" : [
                20
            ]
        }
    ],
    "nodes" : [
        {
            "name" : "Head",
            "rotation" : [
                0.07691057026386261,
                1.6810048230706671e-32,
                -9.753885515822679e-33,
                0.9970380067825317
            ],
            "scale" : [
                1,
                1,
                0.9999999403953552
            ],
            "translation" : [
                1.1641532182693481e-10,
                0.6710391044616699,
                -1.2665987014770508e-07
            ]
        },
        {
            "name" : "Nose",
            "rotation" : [
                0.5268030762672424,
                2.950715046111361e-32,
                3.1254390570496473e-32,
                0.8499873876571655
            ],
            "scale" : [
                1,
                0.9999999403953552,
                0.9999998211860657
            ],
            "translation" : [
                0.008349835872650146,
                0.8823486566543579,
                0.7494342923164368
            ]
        },
        {
            "name" : "EarLeft",
            "rotation" : [
                -0.3818664252758026,
                -0.28877511620521545,
                -0.4118625819683075,
                0.7753426432609558
            ],
            "scale" : [
                1,
                1,
                0.9999999403953552
            ],
            "translation" : [
                0.6834307909011841,
                1.2604193687438965,
                0.21598723530769348
            ]
        },
        {
            "name" : "EarRight",
            "rotation" : [
                -0.3822871446609497,
                0.292903333902359,
                0.4170578122138977,
                0.7707963585853577
            ],
            "scale" : [
                1,
                0.9999999403953552,
                0.9999999403953552
            ],
            "translation" : [
                -0.6849905848503113,
                1.2986159324645996,
                0.19725817441940308
            ]
        },
        {
            "children" : [
                0,
                1,
                2,
                3
            ],
            "name" : "Nec",
            "rotation" : [
                0.21854998171329498,
                -4.9398228296287535e-25,
                -3.132019382379641e-25,
                0.9758257865905762
            ],
            "scale" : [
                1,
                1.0000001192092896,
                1
            ],
            "translation" : [
                5.820766091346741e-11,
                1.1642837524414062,
                -1.0037086894953973e-07
            ]
        },
        {
            "name" : "HandLeft",
            "rotation" : [
                -0.06957559287548065,
                0.1696101725101471,
                -0.24175426363945007,
                0.9528622627258301
            ],
            "scale" : [
                0.9999998807907104,
                1,
                1
            ],
            "translation" : [
                -4.0978193283081055e-08,
                1.0668927431106567,
                1.7881393432617188e-07
            ]
        },
        {
            "children" : [
                5
            ],
            "name" : "LowerArmLeft",
            "rotation" : [
                0.5385909080505371,
                -0.4011715054512024,
                -0.08726789802312851,
                0.7357755303382874
            ],
            "scale" : [
                1.0000001192092896,
                1.000000238418579,
                1
            ],
            "translation" : [
                -1.6316124629156548e-07,
                1.123038411140442,
                -6.605090163702698e-08
            ]
        },
        {
            "children" : [
                6
            ],
            "name" : "UpperArmLeft",
            "rotation" : [
                0.20838208496570587,
                0.2591002285480499,
                -0.9190638065338135,
                0.21157903969287872
            ],
            "scale" : [
                1,
                1.0000001192092896,
                1
            ],
            "translation" : [
                0.9088175892829895,
                1.6707885265350342,
                0.050148431211709976
            ]
        },
        {
            "name" : "HandRight",
            "rotation" : [
                -0.07093088328838348,
                -0.1690618395805359,
                0.24136008322238922,
                0.9529598355293274
            ],
            "scale" : [
                1.0000001192092896,
                1.0000003576278687,
                1
            ],
            "translation" : [
                -1.152646689206449e-08,
                1.0668928623199463,
                -7.915957667137263e-09
            ]
        },
        {
            "children" : [
                8
            ],
            "name" : "LowerArmRight",
            "rotation" : [
                0.5381222367286682,
                0.4009883999824524,
                0.0901125818490982,
                0.7358753085136414
            ],
            "translation" : [
                -2.577514806034742e-07,
                1.123038411140442,
                1.481976283912445e-07
            ]
        },
        {
            "children" : [
                9
            ],
            "name" : "UpperArmRight",
            "rotation" : [
                0.20583875477313995,
                -0.2585139274597168,
                0.9196367859840393,
                0.21229496598243713
            ],
            "scale" : [
                1,
                1.0000001192092896,
                1
            ],
            "translation" : [
                -0.9171233177185059,
                1.6707881689071655,
                0.05014858394861221
            ]
        },
        {
            "children" : [
                4,
                7,
                10
            ],
            "name" : "TorsoUpper",
            "rotation" : [
                0.2400463968515396,
                -7.344391075070523e-18,
                1.816095714375486e-18,
                0.9707614779472351
            ],
            "scale" : [
                1,
                1.0000001192092896,
                1.0000001192092896
            ],
            "translation" : [
                -1.3335686721571705e-17,
                0.6920037865638733,
                -7.450580596923828e-08
            ]
        },
        {
            "name" : "FootLeft",
            "rotation" : [
                0.7196337580680847,
                -0.21244482696056366,
                0.1040986031293869,
                0.6528077125549316
            ],
            "scale" : [
                0.9999998211860657,
                0.9999997615814209,
                0.9999999403953552
            ],
            "translation" : [
                8.283758745619707e-08,
                1.1130508184432983,
                2.187954706300843e-09
            ]
        },
        {
            "children" : [
                12
            ],
            "name" : "LowerLegLeft",
            "rotation" : [
                -0.5091621279716492,
                0.3818633258342743,
                -0.11640644073486328,
                0.7624853253364563
            ],
            "scale" : [
                0.9999999403953552,
                0.9999999403953552,
                0.9999998807907104
            ],
            "translation" : [
                1.950928130156626e-08,
                0.5233636498451233,
                -1.3296126155637467e-07
            ]
        },
        {
            "children" : [
                13
            ],
            "name" : "UpperLegLeft",
            "rotation" : [
                -0.2329127937555313,
                -0.154090017080307,
                -0.9162039756774902,
                0.28736430406570435
            ],
            "scale" : [
                1.0000003576278687,
                1.0000001192092896,
                1.0000001192092896
            ],
            "translation" : [
                0.27947482466697693,
                0.008103176020085812,
                0.08727637678384781
            ]
        },
        {
            "name" : "FootRight",
            "rotation" : [
                0.7194315195083618,
                0.21370366215705872,
                -0.10548865050077438,
                0.652396559715271
            ],
            "scale" : [
                1.000000238418579,
                1.0000001192092896,
                1.0000001192092896
            ],
            "translation" : [
                5.953319259788259e-08,
                1.1130508184432983,
                -2.0634178810041703e-08
            ]
        },
        {
            "children" : [
                15
            ],
            "name" : "LowerLegRight",
            "rotation" : [
                -0.5085241198539734,
                -0.38067713379859924,
                0.11916229128837585,
                0.7630783319473267
            ],
            "scale" : [
                1,
                1.000000238418579,
                1
            ],
            "translation" : [
                1.5869794367517898e-09,
                0.5233635902404785,
                2.1175619480118257e-08
            ]
        },
        {
            "children" : [
                16
            ],
            "name" : "UpperLegRight",
            "rotation" : [
                -0.2297179102897644,
                0.15308740735054016,
                0.9170102477073669,
                0.2878996431827545
            ],
            "scale" : [
                1,
                0.9999999403953552,
                1
            ],
            "translation" : [
                -0.2963850498199463,
                0.008103333413600922,
                0.08727644383907318
            ]
        },
        {
            "children" : [
                11,
                14,
                17
            ],
            "name" : "TorsoMain",
            "rotation" : [
                -0.2326495349407196,
                7.358003986411309e-18,
                -1.760133016828364e-18,
                0.9725606441497803
            ],
            "scale" : [
                1,
                0.9999999403953552,
                0.9999999403953552
            ],
            "translation" : [
                -0.0006429329514503479,
                1.7206193208694458,
                0.11236191540956497
            ]
        },
        {
            "mesh" : 0,
            "name" : "Object_3",
            "skin" : 0
        },
        {
            "children" : [
                19,
                18
            ],
            "name" : "Crash"
        }
    ],
    "materials" : [
        {
            "doubleSided" : true,
            "name" : "None.003",
            "pbrMetallicRoughness" : {
                "baseColorTexture" : {
                    "index" : 0
                },
                "metallicFactor" : 0,
                "roughnessFactor" : 0.6000000238418579
            }
        },
        {
            "doubleSided" : true,
            "name" : "None.002",
            "pbrMetallicRoughness" : {
                "baseColorTexture" : {
                    "index" : 1
                },
                "metallicFactor" : 0,
                "roughnessFactor" : 0.6000000238418579
            }
        }
    ],
    "meshes" : [
        {
            "name" : "Object_1",
            "primitives" : [
                {
                    "attributes" : {
                        "POSITION" : 0,
                        "NORMAL" : 1,
                        "TEXCOORD_0" : 2,
                        "JOINTS_0" : 3,
                        "WEIGHTS_0" : 4
                    },
                    "indices" : 5,
                    "material" : 0
                },
                {
                    "attributes" : {
                        "POSITION" : 6,
                        "NORMAL" : 7,
                        "TEXCOORD_0" : 8,
                        "JOINTS_0" : 9,
                        "WEIGHTS_0" : 10
                    },
                    "indices" : 11,
                    "material" : 1
                }
            ]
        }
    ],
    "textures" : [
        {
            "sampler" : 0,
            "source" : 0
        },
        {
            "sampler" : 0,
            "source" : 1
        }
    ],
    "images" : [
        {
            "bufferView" : 6,
            "mimeType" : "image/png",
            "name" : "None.003_baseColor"
        },
        {
            "bufferView" : 13,
            "mimeType" : "image/png",
            "name" : "None.002_baseColor"
        }
    ],
    "skins" : [
        {
            "inverseBindMatrices" : 12,
            "joints" : [
                18,
                11,
                4,
                0,
                1,
                2,
                3,
                7,
                6,
                5,
                10,
                9,
                8,
                14,
                13,
                12,
                17,
                16,
                15
            ],
            "name" : "Crash"
        }
    ],
    "accessors" : [
        {
            "bufferView" : 0,
            "componentType" : 5126,
            "count" : 112,
            "max" : [
                1.557541012763977,
                5.231668949127197,
                1.5258362293243408
            ],
            "min" : [
                -1.557541012763977,
                0.39378201961517334,
                -0.6935635209083557
            ],
            "type" : "VEC3"
        },
        {
            "bufferView" : 1,
            "componentType" : 5126,
            "count" : 112,
            "type" : "VEC3"
        },
        {
            "bufferView" : 2,
            "componentType" : 5126,
            "count" : 112,
            "type" : "VEC2"
        },
        {
            "bufferView" : 3,
            "componentType" : 5121,
            "count" : 112,
            "type" : "VEC4"
        },
        {
            "bufferView" : 4,
            "componentType" : 5126,
            "count" : 112,
            "type" : "VEC4"
        },
        {
            "bufferView" : 5,
            "componentType" : 5123,
            "count" : 159,
            "type" : "SCALAR"
        },
        {
            "bufferView" : 7,
            "componentType" : 5126,
            "count" : 1545,
            "max" : [
                1.894307017326355,
                5.794213771820068,
                2.358111619949341
            ],
            "min" : [
                -1.894307017326355,
                -3.7274507036499926e-08,
                -0.6935634016990662
            ],
            "type" : "VEC3"
        },
        {
            "bufferView" : 8,
            "componentType" : 5126,
            "count" : 1545,
            "type" : "VEC3"
        },
        {
            "bufferView" : 9,
            "componentType" : 5126,
            "count" : 1545,
            "type" : "VEC2"
        },
        {
            "bufferView" : 10,
            "componentType" : 5121,
            "count" : 1545,
            "type" : "VEC4"
        },
        {
            "bufferView" : 11,
            "componentType" : 5126,
            "count" : 1545,
            "type" : "VEC4"
        },
        {
            "bufferView" : 12,
            "componentType" : 5123,
            "count" : 1545,
            "type" : "SCALAR"
        },
        {
            "bufferView" : 14,
            "componentType" : 5126,
            "count" : 19,
            "type" : "MAT4"
        }
    ],
    "bufferViews" : [
        {
            "buffer" : 0,
            "byteLength" : 1344,
            "byteOffset" : 0
        },
        {
            "buffer" : 0,
            "byteLength" : 1344,
            "byteOffset" : 1344
        },
        {
            "buffer" : 0,
            "byteLength" : 896,
            "byteOffset" : 2688
        },
        {
            "buffer" : 0,
            "byteLength" : 448,
            "byteOffset" : 3584
        },
        {
            "buffer" : 0,
            "byteLength" : 1792,
            "byteOffset" : 4032
        },
        {
            "buffer" : 0,
            "byteLength" : 318,
            "byteOffset" : 5824
        },
        {
            "buffer" : 0,
            "byteLength" : 9491,
            "byteOffset" : 6144
        },
        {
            "buffer" : 0,
            "byteLength" : 18540,
            "byteOffset" : 15636
        },
        {
            "buffer" : 0,
            "byteLength" : 18540,
            "byteOffset" : 34176
        },
        {
            "buffer" : 0,
            "byteLength" : 12360,
            "byteOffset" : 52716
        },
        {
            "buffer" : 0,
            "byteLength" : 6180,
            "byteOffset" : 65076
        },
        {
            "buffer" : 0,
            "byteLength" : 24720,
            "byteOffset" : 71256
        },
        {
            "buffer" : 0,
            "byteLength" : 3090,
            "byteOffset" : 95976
        },
        {
            "buffer" : 0,
            "byteLength" : 326126,
            "byteOffset" : 99068
        },
        {
            "buffer" : 0,
            "byteLength" : 1216,
            "byteOffset" : 425196
        }
    ],
    "samplers" : [
        {
            "magFilter" : 9729,
            "minFilter" : 9987
        }
    ],
    "buffers" : [
        {
            "byteLength" : 426412,
            "uri" : "data:application/octet-stream;base64,"
        }
    ]
}
