{
  "accessors": [
    {
      "bufferView": 2,
      "componentType": 5126,
      "count": 1545,
      "max": [
        1.894307017326355,
        0.6935629844665527,
        5.794213771820068
      ],
      "min": [
        -1.894307017326355,
        -2.358112096786499,
        0.0
      ],
      "type": "VEC3"
    },
    {
      "bufferView": 2,
      "byteOffset": 18540,
      "componentType": 5126,
      "count": 1545,
      "max": [
        0.997805118560791,
        0.9783481359481812,
        0.999596893787384
      ],
      "min": [
        -0.9999682307243347,
        -1.0,
        -1.0
      ],
      "type": "VEC3"
    },
    {
      "bufferView": 1,
      "componentType": 5126,
      "count": 1545,
      "max": [
        0.9959999918937683,
        0.998199999332428
      ],
      "min": [
        0.0017999999690800905,
        0.0017999999690800905
      ],
      "type": "VEC2"
    },
    {
      "bufferView": 0,
      "componentType": 5125,
      "count": 1545,
      "type": "SCALAR"
    },
    {
      "bufferView": 2,
      "byteOffset": 37080,
      "componentType": 5126,
      "count": 115,
      "max": [
        1.557541012763977,
        0.6935629844665527,
        5.231668949127197
      ],
      "min": [
        -1.557541012763977,
        -1.5258369445800781,
        0.39378198981285095
      ],
      "type": "VEC3"
    },
    {
      "bufferView": 2,
      "byteOffset": 38460,
      "componentType": 5126,
      "count": 115,
      "max": [
        0.9419342279434204,
        0.9864345788955688,
        0.9727197885513306
      ],
      "min": [
        -0.9419342279434204,
        -1.0,
        -0.7719070911407471
      ],
      "type": "VEC3"
    },
    {
      "bufferView": 1,
      "byteOffset": 12360,
      "componentType": 5126,
      "count": 115,
      "max": [
        0.9589509963989258,
        0.9843999743461609
      ],
      "min": [
        0.500374972820282,
        0.8767820000648499
      ],
      "type": "VEC2"
    },
    {
      "bufferView": 0,
      "byteOffset": 6180,
      "componentType": 5125,
      "count": 159,
      "type": "SCALAR"
    }
  ],
  "asset": {
    "extras": {
      "author": "OctoRock Studios (https://sketchfab.com/Piklopedian)",
      "license": "CC-BY-4.0 (http://creativecommons.org/licenses/by/4.0/)",
      "source": "https://sketchfab.com/3d-models/crash-bandicoot-6a8340ca318d4b35a5c741415cae3c1e",
      "title": "Crash Bandicoot"
    },
    "generator": "Sketchfab-11.21.0",
    "version": "2.0"
  },
  "bufferViews": [
    {
      "buffer": 0,
      "byteLength": 6816,
      "name": "floatBufferViews",
      "target": 34963
    },
    {
      "buffer": 0,
      "byteLength": 13280,
      "byteOffset": 6816,
      "byteStride": 8,
      "name": "floatBufferViews",
      "target": 34962
    },
    {
      "buffer": 0,
      "byteLength": 39840,
      "byteOffset": 20096,
      "byteStride": 12,
      "name": "floatBufferViews",
      "target": 34962
    }
  ],
  "buffers": [
    {
      "byteLength": 59936,
      "uri": "scene.bin"
    }
  ],
  "images": [
    {
      "uri": "textures/None.002_baseColor.png"
    },
    {
      "uri": "textures/None.003_baseColor.png"
    }
  ],
  "materials": [
    {
      "doubleSided": true,
      "name": "None.002",
      "pbrMetallicRoughness": {
        "baseColorTexture": {
          "index": 0
        },
        "metallicFactor": 0.0,
        "roughnessFactor": 0.6
      }
    },
    {
      "doubleSided": true,
      "name": "None.003",
      "pbrMetallicRoughness": {
        "baseColorTexture": {
          "index": 1
        },
        "metallicFactor": 0.0,
        "roughnessFactor": 0.6
      }
    }
  ],
  "meshes": [
    {
      "name": "Object_0",
      "primitives": [
        {
          "attributes": {
            "NORMAL": 1,
            "POSITION": 0,
            "TEXCOORD_0": 2
          },
          "indices": 3,
          "material": 0,
          "mode": 4
        }
      ]
    },
    {
      "name": "Object_1",
      "primitives": [
        {
          "attributes": {
            "NORMAL": 5,
            "POSITION": 4,
            "TEXCOORD_0": 6
          },
          "indices": 7,
          "material": 1,
          "mode": 4
        }
      ]
    }
  ],
  "nodes": [
    {
      "children": [
        1
      ],
      "matrix": [
        1.0,
        0.0,
        0.0,
        0.0,
        0.0,
        2.220446049250313e-16,
        -1.0,
        0.0,
        0.0,
        1.0,
        2.220446049250313e-16,
        0.0,
        0.0,
        0.0,
        0.0,
        1.0
      ],
      "name": "Sketchfab_model"
    },
    {
      "children": [
        2,
        3
      ],
      "name": "ac3738edac2c492b896296ec3d1030bd.obj.cleaner.materialmerger.gles"
    },
    {
      "mesh": 0,
      "name": "Object_2"
    },
    {
      "mesh": 1,
      "name": "Object_3"
    }
  ],
  "samplers": [
    {
      "magFilter": 9729,
      "minFilter": 9987,
      "wrapS": 10497,
      "wrapT": 10497
    }
  ],
  "scene": 0,
  "scenes": [
    {
      "name": "Sketchfab_Scene",
      "nodes": [
        0
      ]
    }
  ],
  "textures": [
    {
      "sampler": 0,
      "source": 0
    },
    {
      "sampler": 0,
      "source": 1
    }
  ]
}
